<svg width="44" height="44" viewBox="0 0 44 44" fill="none" xmlns="http://www.w3.org/2000/svg">
<rect width="44" height="44" rx="12" fill="#1D1D1D" fill-opacity="0.4"/>
<path d="M14.1569 14.3416C16.6612 12.1831 19.9942 12.8172 21.9929 15.1744C23.9916 12.8172 27.2815 12.2058 29.8288 14.3416C32.3761 16.4774 32.6856 20.1091 30.719 22.6619C29.0839 24.7845 23.6444 29.5496 22.0226 30.9985C20.4008 29.5496 14.9018 24.7845 13.2667 22.6619C11.3001 20.1091 11.6527 16.5001 14.1569 14.3416Z" fill="#1D1D1D" fill-opacity="0.3"/>
<path d="M21.9929 15.1744L21.2302 15.8211L21.9929 16.7207L22.7556 15.8211L21.9929 15.1744ZM22.0226 30.9985L21.3564 31.7443C21.7359 32.0833 22.3094 32.0833 22.6889 31.7443L22.0226 30.9985ZM22.7556 14.5277C20.4636 11.8246 16.5023 10.9998 13.504 13.5842L14.8098 15.0991C16.82 13.3664 19.5247 13.8098 21.2302 15.8211L22.7556 14.5277ZM13.504 13.5842C10.6008 16.0866 10.1813 20.2954 12.4745 23.2722L14.0589 22.0517C12.4189 19.9227 12.7045 16.9137 14.8098 15.0991L13.504 13.5842ZM31.5112 23.2722C33.7957 20.3067 33.4412 16.0654 30.4713 13.5753L29.1863 15.1079C31.3111 16.8894 31.5756 19.9114 29.9268 22.0517L31.5112 23.2722ZM30.4713 13.5753C27.4402 11.0339 23.5297 11.8157 21.2302 14.5277L22.7556 15.8211C24.4535 13.8187 27.1228 13.3778 29.1863 15.1079L30.4713 13.5753ZM12.4745 23.2722C13.3541 24.414 15.2055 26.1947 16.9729 27.8191C18.7613 29.4628 20.558 31.031 21.3564 31.7443L22.6889 30.2528C21.8654 29.5172 20.1017 27.9783 18.3263 26.3466C16.53 24.6956 14.8144 23.0324 14.0589 22.0517L12.4745 23.2722ZM22.6889 31.7443C23.4928 31.0261 25.2697 29.4622 27.0456 27.8163C28.7992 26.191 30.6333 24.4119 31.5112 23.2722L29.9268 22.0517C29.1697 23.0346 27.4665 24.6993 25.6861 26.3494C23.928 27.9789 22.1743 29.5221 21.3564 30.2528L22.6889 31.7443Z" fill="white"/>
</svg>
