<svg width="20" height="24" viewBox="0 0 20 24" fill="none" xmlns="http://www.w3.org/2000/svg">
<path fill-rule="evenodd" clip-rule="evenodd" d="M9.60834 6.55839C9.72538 6.67558 9.79112 6.83443 9.79112 7.00006C9.79112 7.16569 9.72538 7.32454 9.60834 7.44173L5.675 11.3751H15.8333C15.9991 11.3751 16.1581 11.4409 16.2753 11.5581C16.3925 11.6753 16.4583 11.8343 16.4583 12.0001C16.4583 12.1658 16.3925 12.3248 16.2753 12.442C16.1581 12.5592 15.9991 12.6251 15.8333 12.6251H5.675L9.60834 16.5584C9.66974 16.6156 9.719 16.6846 9.75316 16.7613C9.78732 16.8379 9.80568 16.9207 9.80716 17.0046C9.80864 17.0885 9.79321 17.1719 9.76177 17.2497C9.73034 17.3275 9.68355 17.3982 9.6242 17.4576C9.56485 17.5169 9.49416 17.5637 9.41634 17.5952C9.33851 17.6266 9.25515 17.642 9.17124 17.6406C9.08732 17.6391 9.00456 17.6207 8.92789 17.5865C8.85122 17.5524 8.78222 17.5031 8.725 17.4417L3.725 12.4417C3.60796 12.3245 3.54222 12.1657 3.54222 12.0001C3.54222 11.8344 3.60796 11.6756 3.725 11.5584L8.725 6.55839C8.84219 6.44135 9.00105 6.37561 9.16667 6.37561C9.3323 6.37561 9.49115 6.44135 9.60834 6.55839Z" fill="#1D1D1D"/>
</svg>
