<svg width="40" height="40" viewBox="0 0 40 40" fill="none" xmlns="http://www.w3.org/2000/svg">
<g filter="url(#filter0_b_7_507)">
<rect width="40" height="40" rx="8" fill="#1D1D1D" fill-opacity="0.3"/>
<path d="M12.1569 12.3416C14.6612 10.1831 17.9942 10.8172 19.9929 13.1744C21.9916 10.8172 25.2815 10.2058 27.8288 12.3416C30.3761 14.4774 30.6856 18.1091 28.719 20.6619C27.0839 22.7845 21.6444 27.5496 20.0226 28.9985C18.4008 27.5496 12.9018 22.7845 11.2667 20.6619C9.30012 18.1091 9.65269 14.5001 12.1569 12.3416Z" fill="#1D1D1D" fill-opacity="0.3"/>
<path d="M19.993 13.1744L19.2303 13.8211L19.993 14.7207L20.7557 13.8211L19.993 13.1744ZM20.0227 28.9985L19.3565 29.7443C19.736 30.0833 20.3095 30.0833 20.689 29.7443L20.0227 28.9985ZM20.7557 12.5277C18.4637 9.82461 14.5024 8.9998 11.5041 11.5842L12.8099 13.0991C14.8201 11.3664 17.5248 11.8098 19.2303 13.8211L20.7557 12.5277ZM11.5041 11.5842C8.60093 14.0866 8.18144 18.2954 10.4746 21.2722L12.059 20.0517C10.419 17.9227 10.7046 14.9137 12.8099 13.0991L11.5041 11.5842ZM29.5113 21.2722C31.7958 18.3067 31.4413 14.0654 28.4714 11.5753L27.1864 13.1079C29.3112 14.8894 29.5757 17.9114 27.9269 20.0517L29.5113 21.2722ZM28.4714 11.5753C25.4403 9.03387 21.5298 9.81566 19.2303 12.5277L20.7557 13.8211C22.4536 11.8187 25.1229 11.3778 27.1864 13.1079L28.4714 11.5753ZM10.4746 21.2722C11.3542 22.414 13.2056 24.1947 14.973 25.8191C16.7614 27.4628 18.5581 29.031 19.3565 29.7443L20.689 28.2528C19.8655 27.5172 18.1018 25.9783 16.3264 24.3466C14.5301 22.6956 12.8145 21.0324 12.059 20.0517L10.4746 21.2722ZM20.689 29.7443C21.4929 29.0261 23.2698 27.4622 25.0457 25.8163C26.7993 24.191 28.6334 22.4119 29.5113 21.2722L27.9269 20.0517C27.1698 21.0346 25.4666 22.6993 23.6862 24.3494C21.9281 25.9789 20.1744 27.5221 19.3565 28.2528L20.689 29.7443Z" fill="white"/>
</g>
<defs>
<filter id="filter0_b_7_507" x="-4" y="-4" width="48" height="48" filterUnits="userSpaceOnUse" color-interpolation-filters="sRGB">
<feFlood flood-opacity="0" result="BackgroundImageFix"/>
<feGaussianBlur in="BackgroundImageFix" stdDeviation="2"/>
<feComposite in2="SourceAlpha" operator="in" result="effect1_backgroundBlur_7_507"/>
<feBlend mode="normal" in="SourceGraphic" in2="effect1_backgroundBlur_7_507" result="shape"/>
</filter>
</defs>
</svg>
