<svg width="44" height="44" viewBox="0 0 44 44" fill="none" xmlns="http://www.w3.org/2000/svg">
<rect width="44" height="44" rx="12" fill="#1D1D1D" fill-opacity="0.4"/>
<path d="M14.1569 14.3416C16.6612 12.1831 19.9942 12.8172 21.9929 15.1744C23.9916 12.8172 27.2815 12.2058 29.8288 14.3416C32.3761 16.4774 32.6856 20.1091 30.719 22.6619C29.0839 24.7845 23.6444 29.5496 22.0226 30.9985C20.4008 29.5496 14.9018 24.7845 13.2667 22.6619C11.3001 20.1091 11.6527 16.5001 14.1569 14.3416Z" fill="#1D1D1D" fill-opacity="0.3"/>
<path d="M21.993 15.1744L21.2303 15.8211L21.993 16.7207L22.7557 15.8211L21.993 15.1744ZM22.0227 30.9985L21.3565 31.7443C21.736 32.0833 22.3095 32.0833 22.689 31.7443L22.0227 30.9985ZM22.7557 14.5277C20.4637 11.8246 16.5024 10.9998 13.5041 13.5842L14.8099 15.0991C16.8201 13.3664 19.5248 13.8098 21.2303 15.8211L22.7557 14.5277ZM13.5041 13.5842C10.6009 16.0866 10.1814 20.2954 12.4746 23.2722L14.059 22.0517C12.419 19.9227 12.7046 16.9137 14.8099 15.0991L13.5041 13.5842ZM31.5113 23.2722C33.7958 20.3067 33.4413 16.0654 30.4714 13.5753L29.1864 15.1079C31.3112 16.8894 31.5757 19.9114 29.9269 22.0517L31.5113 23.2722ZM30.4714 13.5753C27.4403 11.0339 23.5298 11.8157 21.2303 14.5277L22.7557 15.8211C24.4536 13.8187 27.1229 13.3778 29.1864 15.1079L30.4714 13.5753ZM12.4746 23.2722C13.3542 24.414 15.2056 26.1947 16.973 27.8191C18.7614 29.4628 20.5581 31.031 21.3565 31.7443L22.689 30.2528C21.8655 29.5172 20.1018 27.9783 18.3264 26.3466C16.5301 24.6956 14.8145 23.0324 14.059 22.0517L12.4746 23.2722ZM22.689 31.7443C23.4929 31.0261 25.2698 29.4622 27.0457 27.8163C28.7993 26.191 30.6334 24.4119 31.5113 23.2722L29.9269 22.0517C29.1698 23.0346 27.4666 24.6993 25.6862 26.3494C23.9281 27.9789 22.1744 29.5221 21.3565 30.2528L22.689 31.7443Z" fill="white"/>
</svg>
