<svg width="390" height="48" viewBox="0 0 390 48" fill="none" xmlns="http://www.w3.org/2000/svg">
<rect width="390" height="48" fill="white"/>
<g clip-path="url(#clip0_7_624)">
<path d="M16 20C16 17.9 16 16.85 16.4087 16.0475C16.7683 15.3419 17.3419 14.7683 18.0475 14.4087C18.85 14 19.9 14 22 14H30C32.1 14 33.15 14 33.9525 14.4087C34.6581 14.7683 35.2317 15.3419 35.5913 16.0475C36 16.85 36 17.9 36 20V28C36 30.1 36 31.15 35.5913 31.9525C35.2317 32.6581 34.6581 33.2317 33.9525 33.5913C33.15 34 32.1 34 30 34H22C19.9 34 18.85 34 18.0475 33.5913C17.3419 33.2317 16.7683 32.6581 16.4087 31.9525C16 31.15 16 30.1 16 28V20Z" fill="#FF3000"/>
<path d="M31.0644 30.5625C30.1716 30.5625 29.5566 30.0731 29.5566 28.5572V28.2313H30.5487V28.5575C30.5487 29.3634 30.7669 29.5841 31.0644 29.5841C31.3619 29.5841 31.5706 29.3634 31.5706 28.9891C31.5706 28.5188 31.5009 28.26 30.8066 27.7706C29.9931 27.2047 29.6159 26.6 29.6159 25.8231C29.6159 24.8347 30.1519 24.24 31.0644 24.24C31.6994 24.24 32.5425 24.4319 32.5425 26.0434V26.4178H31.5506V26.0438C31.5506 25.4106 31.3425 25.1997 31.0644 25.1997C30.7669 25.1997 30.6081 25.4106 30.6081 25.7847C30.6081 26.1684 30.6972 26.485 31.3919 27.0034C32.255 27.6459 32.5625 28.1544 32.5625 28.9891C32.5625 29.8234 32.1656 30.5625 31.0644 30.5625ZM27.6816 30.5625C26.7888 30.5625 26.1737 30.15 26.1737 28.5572V28.2313H27.1656V28.5575C27.1656 29.3634 27.3841 29.5841 27.6813 29.5841C27.9791 29.5841 28.1875 29.3634 28.1875 28.9891C28.1875 28.5188 28.1181 28.26 27.4237 27.7706C26.61 27.2047 26.2331 26.6 26.2331 25.8231C26.2331 24.8347 26.7688 24.24 27.6816 24.24C28.3162 24.24 29.1597 24.4319 29.1597 26.0434V26.4178H28.1678V26.0438C28.1678 25.4106 27.9594 25.1997 27.6816 25.1997C27.3841 25.1997 27.2253 25.4106 27.2253 25.7847C27.2253 26.1684 27.3144 26.485 28.0088 27.0034C28.8719 27.6462 29.1794 28.1547 29.1794 28.9894C29.1794 29.8237 28.7825 30.5625 27.6816 30.5625ZM31.0644 23.76C30.1716 23.76 29.5566 23.2706 29.5566 21.7547V21.4287H30.5487V21.755C30.5487 22.5609 30.7669 22.7816 31.0644 22.7816C31.3619 22.7816 31.5706 22.5609 31.5706 22.1866C31.5706 21.7166 31.5009 21.4575 30.8066 20.9681C29.9931 20.4022 29.6159 19.7978 29.6159 19.0206C29.6159 18.0325 30.1519 17.4375 31.0644 17.4375C31.6994 17.4375 32.5425 17.6294 32.5425 19.2412V19.6153H31.5506V19.2412C31.5506 18.6081 31.3425 18.3969 31.0644 18.3969C30.7669 18.3969 30.6081 18.6081 30.6081 18.9822C30.6081 19.3659 30.6972 19.6822 31.3919 20.2006C32.255 20.8434 32.5625 21.3519 32.5625 22.1866C32.5625 23.0209 32.1656 23.76 31.0644 23.76ZM27.6816 23.76C26.7888 23.76 26.1737 23.3475 26.1737 21.7547V21.4287H27.1656V21.755C27.1656 22.5609 27.3841 22.7816 27.6813 22.7816C27.9791 22.7816 28.1875 22.5609 28.1875 22.1866C28.1875 21.7166 28.1181 21.4575 27.4237 20.9681C26.61 20.4022 26.2331 19.7978 26.2331 19.0206C26.2331 18.0325 26.7688 17.4375 27.6816 17.4375C28.3162 17.4375 29.1597 17.6294 29.1597 19.2412V19.6153H28.1678V19.2412C28.1678 18.6081 27.9594 18.3969 27.6816 18.3969C27.3841 18.3969 27.2253 18.6081 27.2253 18.9822C27.2253 19.3659 27.3144 19.6822 28.0088 20.2006C28.8719 20.8434 29.1794 21.3519 29.1794 22.1866C29.1794 23.0209 28.7825 23.76 27.6816 23.76ZM20.4297 28.2313H20.6281C21.0647 28.2313 21.2828 28.02 21.2828 27.0416V26.485C21.2828 25.5066 21.0647 25.2953 20.6281 25.2953H20.4297V28.2313ZM20.4297 30.4666H19.4378V24.3356H20.6284C21.9178 24.3356 22.2753 25.0456 22.2753 26.3888V27.1372C22.2753 28.4803 21.9178 29.1903 20.6284 29.1903H20.4297V30.4666ZM20.6281 20.4694H20.4294V18.4928H20.6281C21.0744 18.4928 21.2825 18.6366 21.2825 19.3084V19.6537C21.2828 20.3256 21.0747 20.4694 20.6281 20.4694ZM22.4634 23.6644L21.6994 21.1122C22.0666 20.8147 22.275 20.3253 22.275 19.7209V19.2412C22.275 18.1187 21.7591 17.5334 20.6281 17.5334H19.4375V23.6644H20.4294V21.4287H20.5584C20.6084 21.4287 20.6775 21.4287 20.7866 21.4191L21.3819 23.6641H22.4631L22.4634 23.6644ZM23.5944 28.2313L24.1003 25.2953H24.1797L24.6856 28.2313H23.5944ZM25.0625 30.4666H26.0547L24.9531 24.3356H23.3263L22.215 30.4666H23.2072L23.4353 29.1906H24.8441L25.0625 30.4666ZM24.2391 23.7603C23.0187 23.7603 22.7906 22.8678 22.7906 21.7838V17.5337H23.8225V21.87C23.8225 22.6281 23.9612 22.8006 24.2391 22.8006C24.5169 22.8006 24.6556 22.6281 24.6556 21.87V17.5334H25.6875V21.7838C25.6875 22.8678 25.4594 23.7603 24.2391 23.7603Z" fill="white"/>
</g>
<rect x="44" y="14" width="2" height="20" rx="1" fill="#D9D9D9"/>
<g clip-path="url(#clip1_7_624)">
<path d="M58.4842 14.4787C60.0153 14.4787 61.1499 14.8773 61.888 15.6752C62.6449 16.4739 63.0233 17.6439 63.0233 19.1848V21.6606C63.0233 23.2022 62.6449 24.3716 61.888 25.1702C61.1506 25.9681 60.0153 26.3667 58.4842 26.3667H57.0442V33.5215H54V14.4787H58.4842ZM57.0442 17.1987V23.6467H58.4842C58.9642 23.6467 59.3329 23.5194 59.591 23.2655C59.849 23.0116 59.9784 22.5399 59.9784 21.8512V18.9942C59.9784 18.3055 59.849 17.8339 59.591 17.5799C59.3329 17.326 58.9635 17.1987 58.4842 17.1987H57.0442ZM67.2292 29.1417C67.2292 29.8304 67.367 30.3208 67.6438 30.6109C67.9395 30.8822 68.327 31.0186 68.8063 31.0186C69.2863 31.0186 69.6647 30.8829 69.9416 30.6109C70.2365 30.3208 70.384 29.8311 70.384 29.1417V18.8592C70.384 18.1706 70.2365 17.6892 69.9416 17.4172C69.6647 17.1271 69.2863 16.9824 68.8063 16.9824C68.3263 16.9824 67.9395 17.1271 67.6445 17.4172C67.367 17.6892 67.2285 18.1699 67.2285 18.8592V29.141L67.2292 29.1417ZM64.1843 19.0492C64.1843 17.5076 64.5809 16.3292 65.3739 15.5125C66.1683 14.6777 67.3127 14.261 68.807 14.261C70.3019 14.261 71.4456 14.6784 72.2393 15.5125C73.0323 16.3285 73.4289 17.5076 73.4289 19.0492V28.9511C73.4289 30.4926 73.0323 31.6808 72.2393 32.5149C71.4463 33.3309 70.3019 33.7392 68.807 33.7392C67.3127 33.7392 66.1683 33.3309 65.3753 32.5149C64.5823 31.6808 64.185 30.4926 64.185 28.9511L64.1843 19.0492ZM84.2365 26.421V28.9511C84.2365 30.4926 83.849 31.6808 83.0741 32.5149C82.3179 33.3309 81.1923 33.7392 79.6974 33.7392C78.2031 33.7392 77.0678 33.3309 76.2929 32.5149C75.5367 31.6808 75.1583 30.4926 75.1583 28.9511V19.0492C75.1583 17.5076 75.5367 16.3292 76.2929 15.5125C77.0678 14.6777 78.2024 14.261 79.6974 14.261C81.1923 14.261 82.3179 14.6784 83.0741 15.5125C83.849 16.3285 84.2365 17.5076 84.2365 19.0492V20.8989H81.3579V18.8586C81.3579 18.1699 81.2104 17.6885 80.9155 17.4165C80.6386 17.1264 80.2602 16.9817 79.7802 16.9817C79.3002 16.9817 78.9134 17.1264 78.6184 17.4165C78.3409 17.6885 78.2024 18.1692 78.2024 18.8586V29.141C78.2024 29.8297 78.3416 30.3111 78.6177 30.5831C78.9134 30.8544 79.3009 30.9907 79.7802 30.9907C80.2602 30.9907 80.6386 30.8551 80.9155 30.5831C81.2104 30.3111 81.3579 29.8304 81.3579 29.141V26.421H84.2365ZM94.9134 26.421V28.9511C94.9134 30.4926 94.5259 31.6808 93.751 32.5149C92.9941 33.3309 91.8685 33.7392 90.3743 33.7392C88.8793 33.7392 87.7447 33.3309 86.9697 32.5149C86.2129 31.6808 85.8351 30.4926 85.8351 28.9511V19.0492C85.8351 17.5076 86.2129 16.3292 86.969 15.5125C87.7454 14.6777 88.88 14.261 90.375 14.261C91.8692 14.261 92.9948 14.6784 93.7517 15.5125C94.5266 16.3285 94.9134 17.5076 94.9134 19.0492V20.8989H92.0355V18.8586C92.0355 18.1699 91.888 17.6885 91.5924 17.4165C91.3155 17.1264 90.9377 16.9817 90.4577 16.9817C89.9777 16.9817 89.5903 17.1264 89.2953 17.4165C89.0184 17.6885 88.88 18.1692 88.88 18.8586V29.141C88.88 29.8297 89.0191 30.3111 89.2953 30.5831C89.5903 30.8544 89.9777 30.9907 90.4577 30.9907C90.9377 30.9907 91.3155 30.8551 91.5924 30.5831C91.888 30.3111 92.0355 29.8304 92.0355 29.141V26.421H94.9134ZM99.888 33.5215H96.7603V14.4787H99.4734V26.5302L100.579 22.3403L103.071 14.4787H106.42V33.5215H103.68V20.1093L102.435 24.789L99.888 33.5215ZM108.019 33.5215C108.166 33.1591 108.259 32.805 108.296 32.4606C108.333 32.0982 108.351 31.6808 108.351 31.2092V28.2714C108.351 27.2739 108.489 26.4307 108.766 25.7413C109.062 25.0339 109.597 24.526 110.371 24.2179C109.043 23.6008 108.378 22.3132 108.378 20.3549V18.8586C108.378 17.3893 108.729 16.2916 109.43 15.5667C110.15 14.8412 111.303 14.4787 112.89 14.4787H117.485V33.5215H114.44V25.7685H113.388C112.687 25.7685 112.179 25.9493 111.865 26.3125C111.552 26.6749 111.395 27.3003 111.395 28.1893V31.182C111.395 31.5626 111.386 31.8805 111.367 32.1344C111.367 32.3883 111.349 32.597 111.311 32.7605C111.293 32.9232 111.265 33.0596 111.229 33.1681C111.192 33.2766 111.155 33.3949 111.118 33.5215H108.019ZM112.973 17.1987C112.438 17.1987 112.041 17.3532 111.784 17.6613C111.543 17.9695 111.423 18.4683 111.423 19.1577V21.0346C111.423 21.7963 111.58 22.3222 111.894 22.613C112.226 22.9031 112.678 23.0478 113.25 23.0478H114.44V17.1987H112.973Z" fill="#FF3000"/>
</g>
<g clip-path="url(#clip2_7_624)">
<path d="M307.994 17.7944L307.3 18.3826L307.994 19.2008L308.687 18.3826L307.994 17.7944ZM308.021 32.1799L307.415 32.8581C307.581 33.0071 307.797 33.0894 308.021 33.0894C308.244 33.0894 308.46 33.0071 308.627 32.8581L308.021 32.1817V32.1799ZM308.687 17.2072C306.604 14.7499 303.002 13.9999 300.277 16.349L301.464 17.7272C303.291 16.1517 305.75 16.5535 307.3 18.3826L308.687 17.2072ZM300.277 16.349C297.637 18.6244 297.256 22.4499 299.34 25.1563L300.781 24.0472C299.29 22.1108 299.55 19.3763 301.463 17.7263L300.277 16.349H300.277ZM316.647 25.1563C318.724 22.4608 318.401 18.6044 315.701 16.3408L314.533 17.7344C316.465 19.3535 316.707 22.1008 315.207 24.0472L316.647 25.1563ZM315.701 16.3408C312.947 14.0308 309.391 14.7408 307.301 17.2072L308.687 18.3826C310.23 16.5626 312.657 16.1617 314.533 17.7344L315.701 16.3408ZM299.341 25.1563C300.141 26.1944 301.823 27.8135 303.43 29.2899C305.056 30.7844 306.689 32.2099 307.415 32.8581L308.627 31.5026C307.877 30.8335 306.275 29.4344 304.66 27.9517C303.027 26.4508 301.467 24.9381 300.781 24.0472L299.341 25.1563ZM308.627 32.8581C309.357 32.2053 310.972 30.7835 312.587 29.2872C314.181 27.8099 315.848 26.1926 316.647 25.1563L315.207 24.0472C314.518 24.9408 312.97 26.4535 311.352 27.9535C309.753 29.4353 308.158 30.8381 307.416 31.5026L308.627 32.8581Z" fill="#1D1D1D"/>
</g>
<g clip-path="url(#clip3_7_624)">
<path d="M327.25 32.0952C327.25 31.6019 327.372 31.1238 327.555 30.6667C328.534 28.2019 331.895 26.381 336.006 26.381C340.119 26.381 343.483 28.2019 344.463 30.6667C344.644 31.1238 344.75 31.6352 344.75 32.101M341.631 19.2381C341.631 20.3747 341.039 21.4648 339.984 22.2686C338.929 23.0723 337.498 23.5238 336.006 23.5238C334.514 23.5238 333.084 23.0723 332.029 22.2686C330.974 21.4648 330.381 20.3747 330.381 19.2381C330.381 18.1015 330.974 17.0114 332.029 16.2076C333.084 15.4039 334.514 14.9524 336.006 14.9524C337.498 14.9524 338.929 15.4039 339.984 16.2076C341.039 17.0114 341.631 18.1015 341.631 19.2381Z" stroke="#1D1D1D" stroke-width="2" stroke-linecap="square" stroke-linejoin="round"/>
</g>
<g clip-path="url(#clip4_7_624)">
<path d="M354.247 23.9999H373.294M354.247 18.2856H373.294M354.247 29.7142H373.294" stroke="#1D1D1D" stroke-width="1.90476" stroke-linejoin="round"/>
</g>
<defs>
<clipPath id="clip0_7_624">
<rect width="20" height="20" fill="white" transform="translate(16 14)"/>
</clipPath>
<clipPath id="clip1_7_624">
<rect width="64" height="20" fill="white" transform="translate(54 14)"/>
</clipPath>
<clipPath id="clip2_7_624">
<rect width="20" height="20" fill="white" transform="translate(298 14)"/>
</clipPath>
<clipPath id="clip3_7_624">
<rect width="20" height="20" fill="white" transform="translate(326 14)"/>
</clipPath>
<clipPath id="clip4_7_624">
<rect width="20" height="14" fill="white" transform="translate(354 17)"/>
</clipPath>
</defs>
</svg>
