<svg width="32" height="32" viewBox="0 0 32 32" fill="none" xmlns="http://www.w3.org/2000/svg">
<path fill-rule="evenodd" clip-rule="evenodd" d="M10.6689 2.66604H21.3359C23.4577 2.66604 25.4925 3.50889 26.9928 5.00918C28.4931 6.50948 29.3359 8.54431 29.3359 10.666V21.332C29.3359 23.4538 28.4931 25.4886 26.9928 26.9889C25.4925 28.4892 23.4577 29.332 21.3359 29.332H10.6689C8.54721 29.332 6.51238 28.4892 5.01209 26.9889C3.5118 25.4886 2.66895 23.4538 2.66895 21.332V10.665C2.66895 8.54331 3.5118 6.50848 5.01209 5.00818C6.51238 3.50789 8.54721 2.66604 10.6689 2.66604ZM21.3369 22.698C21.3369 22.698 20.9599 23.62 19.9529 23.18L16.1789 20.286L13.7459 22.488C13.7459 22.488 13.5579 22.635 13.3479 22.551C13.3479 22.551 13.1589 22.531 12.9499 21.838C12.4905 20.365 12.0361 18.8903 11.5869 17.414L7.83295 16.156C7.83295 16.156 7.26695 15.946 7.20395 15.506C7.14094 15.066 7.85395 14.814 7.85395 14.814L22.7629 8.96404C22.7629 8.96404 23.9789 8.41804 23.9999 9.32004L21.3369 22.698ZM21.1049 11.69C21.1249 11.375 20.6009 11.69 20.6009 11.69L12.3609 16.932C12.3035 16.9691 12.26 17.0241 12.2372 17.0886C12.2144 17.153 12.2136 17.2231 12.2349 17.288L13.2199 20.518C13.2829 20.706 13.5559 20.685 13.5979 20.476L13.8279 18.505C13.8275 18.467 13.837 18.4295 13.8554 18.3962C13.8738 18.3629 13.9005 18.3349 13.9329 18.315C14.7299 17.603 20.6639 12.277 20.9159 12.025C21.1879 11.732 21.1049 11.69 21.1049 11.69Z" fill="white"/>
</svg>
