<svg width="16" height="16" viewBox="0 0 16 16" fill="none" xmlns="http://www.w3.org/2000/svg">
<path d="M1.59805 4.82895V4.22895C1.43892 4.22895 1.2863 4.29217 1.17378 4.40469C1.06126 4.51721 0.998047 4.66982 0.998047 4.82895H1.59805ZM1.59805 13.413H0.998047C0.998047 13.5721 1.06126 13.7247 1.17378 13.8372C1.2863 13.9497 1.43892 14.013 1.59805 14.013V13.413ZM14.402 13.413V14.013C14.5612 14.013 14.7138 13.9497 14.8263 13.8372C14.9388 13.7247 15.002 13.5721 15.002 13.413H14.402ZM14.402 4.82895H15.002C15.002 4.66982 14.9388 4.51721 14.8263 4.40469C14.7138 4.29217 14.5612 4.22895 14.402 4.22895V4.82895ZM7.27405 2.60195V2.00195C7.161 2.0019 7.05024 2.03379 6.95452 2.09395C6.85881 2.1541 6.78203 2.24007 6.73305 2.34195L7.27305 2.60195H7.27405ZM10.84 2.60195L11.383 2.34795C11.3348 2.24464 11.2581 2.15723 11.1619 2.09595C11.0657 2.03467 10.9541 2.00206 10.84 2.00195V2.60195ZM11.88 4.82895L11.336 5.08195L11.498 5.42795H11.88V4.82895ZM6.20205 4.82895V5.42895H6.58005L6.74305 5.08895L6.20205 4.82895ZM0.998047 4.82895V13.413H2.19805V4.82695H0.998047V4.82895ZM1.59805 14.013H14.402V12.813H1.59805V14.013ZM15.002 13.413V4.82895H13.802V13.413H15.002ZM7.27405 3.20295H10.84V2.00195H7.27405V3.20195V3.20295ZM14.402 4.22895H11.88V5.42795L14.402 5.42895V4.22895ZM1.59805 5.42895H3.94505V4.22895H1.59805V5.42895ZM3.94505 5.42895H6.20205V4.22895H3.94505V5.42895ZM3.91405 5.42795C3.91405 5.42795 3.98505 5.42495 4.07705 5.56795C4.18305 5.72995 4.31805 6.09195 4.31805 6.81895H5.51805C5.51805 5.96895 5.36505 5.34495 5.08305 4.91295C4.78805 4.45895 4.37305 4.24995 3.97705 4.22895L3.91405 5.42795ZM4.31805 6.81895V7.15195H5.51805V6.81995H4.31805V6.81895ZM6.74305 5.08895L7.81405 2.86195L6.73305 2.34195L5.66205 4.56795L6.74305 5.08795V5.08895ZM10.296 2.85595L11.336 5.08195L12.423 4.57495L11.383 2.34795L10.296 2.85595ZM10.821 9.05995C10.821 9.55388 10.6249 10.0276 10.2757 10.3769C9.92658 10.7263 9.45297 10.9227 8.95905 10.923V12.123C9.77106 12.1224 10.5496 11.7995 11.1236 11.2251C11.6976 10.6507 12.02 9.87197 12.02 9.05995H10.82H10.821ZM8.96005 10.923C8.71531 10.9231 8.47295 10.875 8.2468 10.7814C8.02066 10.6879 7.81516 10.5507 7.64206 10.3776C7.46896 10.2046 7.33164 9.99922 7.23795 9.77312C7.14427 9.54703 7.09605 9.30469 7.09605 9.05995H5.89605C5.89605 9.87231 6.21875 10.6514 6.79318 11.2258C7.3676 11.8002 8.14669 12.123 8.95905 12.123V10.923H8.96005ZM7.09605 9.05995C7.09605 8.03195 7.93005 7.19795 8.95905 7.19795V5.99795C8.14686 5.99795 7.36793 6.32052 6.79353 6.89473C6.21914 7.46894 5.89631 8.24777 5.89605 9.05995H7.09605ZM8.95905 7.19795C9.98705 7.19795 10.821 8.03195 10.821 9.05995H12.02C12.0198 8.24812 11.6982 7.46959 11.1243 6.89544C10.5503 6.32129 9.77188 5.99848 8.96005 5.99795V7.19795H8.95905ZM7.94905 5.20195H8.95305V4.00195H7.95005L7.94905 5.20195ZM8.95305 5.20195H9.95805V4.00195H8.95305V5.20195Z" fill="white"/>
</svg>
