<svg width="24" height="25" viewBox="0 0 24 25" fill="none" xmlns="http://www.w3.org/2000/svg">
<path d="M3 9.78003C2.44772 9.78003 2 10.2277 2 10.78C2 11.3323 2.44772 11.78 3 11.78V9.78003ZM3 22.78H2C2 23.3323 2.44772 23.78 3 23.78V22.78ZM21 22.78V23.78C21.5523 23.78 22 23.3323 22 22.78H21ZM21 4.78003H22C22 4.22775 21.5523 3.78003 21 3.78003V4.78003ZM3 4.78003V3.78003C2.44772 3.78003 2 4.22775 2 4.78003H3ZM17 2.78003V1.78003H15V2.78003H17ZM15 6.78003V7.78003H17V6.78003H15ZM9 2.78003V1.78003H7V2.78003H9ZM7 6.78003V7.78003H9V6.78003H7ZM21 9.78003H3V11.78H21V9.78003ZM3 5.78003H21V3.78003H3V5.78003ZM20 10.78V22.78H22V10.78H20ZM21 21.78H3V23.78H21V21.78ZM4 22.78V4.78003H2V22.78H4ZM15 2.78003V6.78003H17V2.78003H15ZM7 2.78003V6.78003H9V2.78003H7ZM20 4.78003V10.78H22V4.78003H20Z" fill="#747474"/>
</svg>
