<svg width="16" height="16" viewBox="0 0 16 16" fill="none" xmlns="http://www.w3.org/2000/svg">
<path d="M8.33295 8.6349C8.57682 8.6349 8.81829 8.58687 9.0436 8.49354C9.2689 8.40022 9.47361 8.26343 9.64605 8.091C9.81849 7.91856 9.95527 7.71384 10.0486 7.48854C10.1419 7.26324 10.19 7.02176 10.19 6.7779C10.19 6.53403 10.1419 6.29256 10.0486 6.06726C9.95527 5.84195 9.81849 5.63724 9.64605 5.4648C9.47361 5.29236 9.2689 5.15558 9.0436 5.06225C8.81829 4.96893 8.57682 4.9209 8.33295 4.9209C7.84045 4.9209 7.36811 5.11655 7.01986 5.4648C6.6716 5.81306 6.47595 6.28539 6.47595 6.7779C6.47595 7.27041 6.6716 7.74274 7.01986 8.091C7.36811 8.43925 7.84045 8.6349 8.33295 8.6349Z" stroke="white" stroke-width="1.2" stroke-linecap="round" stroke-linejoin="round"/>
<path d="M8.333 14.2069C10.809 11.7309 13.285 9.51294 13.285 6.77794C13.285 5.46445 12.7632 4.20477 11.8345 3.27599C10.9057 2.34722 9.64599 1.82544 8.33251 1.82544C7.01902 1.82544 5.75933 2.34722 4.83056 3.27599C3.90178 4.20477 3.38 5.46445 3.38 6.77794C3.38 9.51294 5.857 11.7309 8.333 14.2069Z" stroke="white" stroke-width="1.2" stroke-linecap="round" stroke-linejoin="round"/>
</svg>
