<svg width="24" height="25" viewBox="0 0 24 25" fill="none" xmlns="http://www.w3.org/2000/svg">
<path d="M1.79463 6.69006V5.89006C1.58244 5.89006 1.37895 5.97436 1.22892 6.1244C1.07889 6.27445 0.99461 6.47795 0.994629 6.69014L1.79463 6.69006ZM1.79588 20.5418L0.995877 20.5419C0.995917 20.9837 1.35408 21.3418 1.79588 21.3418V20.5418ZM22.2166 20.5418V21.3418C22.6583 21.3418 23.0166 20.9836 23.0166 20.5418H22.2166ZM22.2166 6.69029H23.0166C23.0166 6.24848 22.6583 5.89031 22.2166 5.89029V6.69029ZM10.8074 3.09736V2.29736C10.5 2.29736 10.2197 2.4735 10.0865 2.75051L10.8074 3.09736ZM16.5617 3.09736L17.2866 2.75881C17.1551 2.47729 16.8724 2.29736 16.5617 2.29736V3.09736ZM18.2397 6.69006L17.5149 7.02861L17.7304 7.49003L18.2397 7.49006L18.2397 6.69006ZM9.0787 6.69006V7.49006H9.58157L9.7996 7.03692L9.0787 6.69006ZM0.994629 6.69014L0.995877 20.5419L2.59588 20.5417L2.59463 6.68999L0.994629 6.69014ZM1.79588 21.3418H22.2166V19.7418H1.79588V21.3418ZM23.0166 20.5418V6.69029H21.4165V20.5418H23.0166ZM10.8074 3.89736H16.5617V2.29736H10.8074V3.89736ZM22.2166 5.89029L18.2397 5.89006L18.2397 7.49006L22.2164 7.49029L22.2166 5.89029ZM1.79463 7.49006H5.43666V5.89006H1.79463V7.49006ZM5.43666 7.49006H9.0787V5.89006H5.43666V7.49006ZM5.39431 7.48894C5.45061 7.49193 5.61316 7.5174 5.7907 7.79022C5.98634 8.09084 6.20681 8.7109 6.20681 9.90262H7.80681C7.80681 8.54719 7.56151 7.5779 7.13173 6.9175C6.68385 6.22928 6.06132 5.92206 5.47902 5.89119L5.39431 7.48894ZM6.20681 9.90262V10.4402H7.80681V9.90262H6.20681ZM9.7996 7.03692L11.5283 3.44422L10.0865 2.75051L8.3578 6.34321L9.7996 7.03692ZM15.8369 3.43591L17.5149 7.02861L18.9646 6.35152L17.2866 2.75881L15.8369 3.43591ZM16.7 13.5186C16.7 15.2714 15.2791 16.6923 13.5263 16.6923V18.2923C16.1628 18.2923 18.2999 16.1551 18.2999 13.5186H16.7ZM13.5263 16.6923C11.7736 16.6923 10.3526 15.2714 10.3526 13.5186H8.7526C8.7526 16.1551 10.8899 18.2923 13.5263 18.2923V16.6923ZM10.3526 13.5186C10.3526 11.7658 11.7736 10.3449 13.5263 10.3449V8.7449C10.8899 8.7449 8.7526 10.8822 8.7526 13.5186H10.3526ZM13.5263 10.3449C15.2791 10.3449 16.7 11.7658 16.7 13.5186H18.2999C18.2999 10.8822 16.1628 8.7449 13.5263 8.7449V10.3449ZM11.8971 7.12509H13.518V5.52509H11.8971V7.12509ZM13.518 7.12509H15.139V5.52509H13.518V7.12509Z" fill="white"/>
</svg>
