<svg width="24" height="26" viewBox="0 0 24 26" fill="none" xmlns="http://www.w3.org/2000/svg">
<mask id="path-1-inside-1_7_430" fill="white">
<path d="M0 0.780029H24V25.78H0V0.780029Z"/>
</mask>
<path d="M24 24.78H0V26.78H24V24.78Z" fill="#FFCF08" mask="url(#path-1-inside-1_7_430)"/>
<path d="M22.2569 3.99629H23.0569C23.0569 3.55446 22.6987 3.19629 22.2569 3.19629V3.99629ZM22.2569 7.5789V8.3789C22.6987 8.3789 23.0569 8.02073 23.0569 7.5789H22.2569ZM1.77436 3.99629V3.19629C1.33254 3.19629 0.974365 3.55446 0.974365 3.99629H1.77436ZM1.77436 7.5789H0.974365C0.974365 8.02073 1.33254 8.3789 1.77436 8.3789V7.5789ZM21.4569 3.99629V7.5789H23.0569V3.99629H21.4569ZM22.2569 6.7789H19.2392V8.3789H22.2569V6.7789ZM16.5323 12.3573C16.5503 12.2184 16.6505 11.9252 16.9178 11.6714C17.1655 11.4361 17.6003 11.1932 18.3678 11.1932V9.59316C17.2246 9.59316 16.385 9.97073 15.816 10.5112C15.2666 11.033 15.0077 11.6706 14.9455 12.1523L16.5323 12.3573ZM12.0157 4.79629H22.2569V3.19629H12.0157V4.79629ZM19.2392 6.7789H12.0157V8.3789H19.2392V6.7789ZM15.7389 11.4548H14.0029V13.0548H15.7389V11.4548ZM14.0029 11.4548H12.0157V13.0548H14.0029V11.4548ZM14.8029 21.7686V12.2548H13.2029V21.7686H14.8029ZM23.0569 12.2362V11.4179H21.4569V12.2362H23.0569ZM18.4004 21.7686V15.1845H16.8005V21.7686H18.4004ZM18.4004 15.1845V15.0902H16.8005V15.1845H18.4004ZM23.0569 11.4179C23.0569 9.22632 21.5577 7.31912 19.4281 6.80154L19.0501 8.35627C20.4625 8.69954 21.4569 9.96442 21.4569 11.4179H23.0569ZM14.9389 12.2548C14.9389 13.8713 15.8926 15.2618 17.2586 15.9077L17.9424 14.4612C17.1108 14.068 16.5389 13.2254 16.5389 12.2548H14.9389ZM17.2586 15.9077C17.7843 16.1563 18.3716 16.2951 18.9885 16.2951V14.6951C18.6135 14.6951 18.2593 14.6111 17.9424 14.4612L17.2586 15.9077ZM18.9885 16.2951C21.2273 16.2951 23.0569 14.4808 23.0569 12.2362H21.4569C21.4569 13.5912 20.3496 14.6951 18.9885 14.6951V16.2951ZM0.974365 3.99629V7.5789H2.57436V3.99629H0.974365ZM1.77436 8.3789H4.79207V6.7789H1.77436V8.3789ZM9.08573 12.1523C9.02351 11.6706 8.76469 11.033 8.21526 10.5112C7.64619 9.97073 6.80661 9.59316 5.6634 9.59316V11.1932C6.43095 11.1932 6.86575 11.4361 7.11342 11.6714C7.38072 11.9252 7.48098 12.2184 7.49892 12.3573L9.08573 12.1523ZM12.0157 3.19629H1.77436V4.79629H12.0157V3.19629ZM4.79207 8.3789H12.0157V6.7789H4.79207V8.3789ZM8.29233 13.0548H10.0284V11.4548H8.29233V13.0548ZM10.0284 13.0548H12.0157V11.4548H10.0284V13.0548ZM10.8284 21.7686V12.2548H9.22839V21.7686H10.8284ZM2.57436 12.2362V11.4179H0.974365V12.2362H2.57436ZM7.2307 21.7686V15.1845H5.6307V21.7686H7.2307ZM7.2307 15.1845V15.0902H5.6307V15.1845H7.2307ZM2.57436 11.4179C2.57436 9.96442 3.56864 8.69954 4.98101 8.35627L4.60313 6.80154C2.47354 7.31912 0.974365 9.22631 0.974365 11.4179H2.57436ZM7.49232 12.2548C7.49232 13.2254 6.92032 14.068 6.08872 14.4613L6.77268 15.9077C8.1386 15.2618 9.09233 13.8713 9.09233 12.2548H7.49232ZM6.08872 14.4613C5.77189 14.6111 5.41776 14.6951 5.0427 14.6951V16.2951C5.65964 16.2951 6.2469 16.1563 6.77268 15.9077L6.08872 14.4613ZM5.0427 14.6951C3.68165 14.6951 2.57436 13.5912 2.57436 12.2362H0.974365C0.974365 14.4808 2.80397 16.2951 5.0427 16.2951V14.6951Z" fill="#FFCF08"/>
</svg>
