<svg width="16" height="16" viewBox="0 0 16 16" fill="none" xmlns="http://www.w3.org/2000/svg">
<path d="M8.33307 8.6349C8.57694 8.6349 8.81842 8.58687 9.04372 8.49354C9.26902 8.40022 9.47373 8.26343 9.64617 8.091C9.81861 7.91856 9.9554 7.71384 10.0487 7.48854C10.142 7.26324 10.1901 7.02176 10.1901 6.7779C10.1901 6.53403 10.142 6.29256 10.0487 6.06726C9.9554 5.84195 9.81861 5.63724 9.64617 5.4648C9.47373 5.29236 9.26902 5.15558 9.04372 5.06225C8.81842 4.96893 8.57694 4.9209 8.33307 4.9209C7.84057 4.9209 7.36823 5.11655 7.01998 5.4648C6.67172 5.81306 6.47607 6.28539 6.47607 6.7779C6.47607 7.27041 6.67172 7.74274 7.01998 8.091C7.36823 8.43925 7.84057 8.6349 8.33307 8.6349Z" stroke="white" stroke-width="1.2" stroke-linecap="round" stroke-linejoin="round"/>
<path d="M8.33288 14.2069C10.8089 11.7309 13.2849 9.51294 13.2849 6.77794C13.2849 5.46445 12.7631 4.20477 11.8343 3.27599C10.9056 2.34722 9.64587 1.82544 8.33238 1.82544C7.0189 1.82544 5.75921 2.34722 4.83044 3.27599C3.90166 4.20477 3.37988 5.46445 3.37988 6.77794C3.37988 9.51294 5.85688 11.7309 8.33288 14.2069Z" stroke="white" stroke-width="1.2" stroke-linecap="round" stroke-linejoin="round"/>
</svg>
