<svg width="24" height="25" viewBox="0 0 24 25" fill="none" xmlns="http://www.w3.org/2000/svg">
<path d="M7.28235 7.26746L3.29668 3.55308L7.28235 7.26746ZM9.96426 13.9342C7.20506 16.8314 4.55187 19.6093 4.09818 20.1139C3.36133 20.9334 5.21393 22.8238 6.03703 21.896C6.52649 21.3443 9.25835 18.6616 11.8081 15.6482M13.6359 9.47085C13.7137 9.3793 13.7995 9.2818 13.9001 9.1723C14.4293 8.59656 14.416 7.9904 14.4692 6.2559C14.5223 4.52139 19.8832 1.34435 21.4382 2.77342C22.9931 4.20249 20.6417 10.0003 18.7012 10.1459C16.7606 10.2914 16.4406 10.408 15.8985 10.9977C15.8086 11.0956 15.7333 11.1784 15.6668 11.2527M4.91056 1.90356L10.141 6.16193C10.3054 6.89251 10.7084 8.8161 11.6646 9.82859C11.9529 10.1339 13.1804 11.2484 14.4692 12.3373C17.4548 14.8598 21.6159 18.5252 22.1556 19.0228C22.9283 19.7351 21.2659 21.6596 20.4603 21.1059C19.9215 20.7355 12.8966 14.4009 9.96426 11.582C9.23802 10.9516 7.35742 10.3084 6.4446 10.1833L1.64453 5.24288" fill="white"/>
</svg>
