<svg width="24" height="25" viewBox="0 0 24 25" fill="none" xmlns="http://www.w3.org/2000/svg">
<g clip-path="url(#clip0_7_441)">
<path d="M11.1819 4.64364C11.1819 5.09551 11.5482 5.46183 12 5.46183C12.4519 5.46183 12.8182 5.09551 12.8182 4.64364H11.1819ZM3.27277 19.9164H2.45459C2.45459 20.3682 2.8209 20.7346 3.27277 20.7346V19.9164ZM20.7273 19.9164V20.7346C21.1792 20.7346 21.5455 20.3682 21.5455 19.9164H20.7273ZM20.7273 4.64364H21.5455C21.5455 4.19178 21.1792 3.82546 20.7273 3.82546V4.64364ZM3.27277 4.64364V3.82546C2.8209 3.82546 2.45459 4.19178 2.45459 4.64364H3.27277ZM3.27277 11.4618C2.8209 11.4618 2.45459 11.8282 2.45459 12.28C2.45459 12.7319 2.8209 13.0982 3.27277 13.0982V11.4618ZM20.7273 13.0982C21.1792 13.0982 21.5455 12.7319 21.5455 12.28C21.5455 11.8282 21.1792 11.4618 20.7273 11.4618V13.0982ZM19.091 23.1891H19.9091C19.9091 23.0621 19.8796 22.9368 19.8227 22.8232L19.091 23.1891ZM4.90914 23.1891L4.17733 22.8232C4.12053 22.9368 4.09095 23.0621 4.09095 23.1891H4.90914ZM8.18186 15.28C7.73 15.28 7.36368 15.6463 7.36368 16.0982C7.36368 16.55 7.73 16.9164 8.18186 16.9164V15.28ZM8.19277 16.9164C8.64464 16.9164 9.01095 16.55 9.01095 16.0982C9.01095 15.6463 8.64464 15.28 8.19277 15.28V16.9164ZM15.8182 15.28C15.3664 15.28 15 15.6463 15 16.0982C15 16.55 15.3664 16.9164 15.8182 16.9164V15.28ZM15.8291 16.9164C16.281 16.9164 16.6473 16.55 16.6473 16.0982C16.6473 15.6463 16.281 15.28 15.8291 15.28V16.9164ZM8.72732 24.0073H15.2728V22.3709H8.72732V24.0073ZM6.5455 2.1891H17.4546V0.552734H6.5455V2.1891ZM12.8182 4.64364V1.37092H11.1819V4.64364H12.8182ZM3.27277 5.46183H20.7273V3.82546H3.27277V5.46183ZM19.9091 4.64364V19.9164H21.5455V4.64364H19.9091ZM17.4546 19.0982H6.5455V20.7346H17.4546V19.0982ZM4.09095 19.9164V4.64364H2.45459V19.9164H4.09095ZM3.27277 13.0982H20.7273V11.4618H3.27277V13.0982ZM16.7228 20.2823L18.3592 23.555L19.8227 22.8232L18.1864 19.5505L16.7228 20.2823ZM5.8137 19.5505L4.17733 22.8232L5.64094 23.555L7.2773 20.2823L5.8137 19.5505ZM8.18186 16.9164H8.19277V15.28H8.18186V16.9164ZM7.90914 16.0982C7.90914 15.9475 8.03124 15.8255 8.18186 15.8255V17.4618C8.93498 17.4618 9.5455 16.8514 9.5455 16.0982H7.90914ZM8.18186 15.8255C8.33248 15.8255 8.45459 15.9475 8.45459 16.0982H6.81823C6.81823 16.8514 7.42874 17.4618 8.18186 17.4618V15.8255ZM8.45459 16.0982C8.45459 16.2488 8.33248 16.3709 8.18186 16.3709V14.7346C7.42874 14.7346 6.81823 15.345 6.81823 16.0982H8.45459ZM8.18186 16.3709C8.03124 16.3709 7.90914 16.2488 7.90914 16.0982H9.5455C9.5455 15.345 8.93498 14.7346 8.18186 14.7346V16.3709ZM15.8182 16.9164H15.8291V15.28H15.8182V16.9164ZM15.5455 16.0982C15.5455 15.9475 15.6676 15.8255 15.8182 15.8255V17.4618C16.5714 17.4618 17.1819 16.8514 17.1819 16.0982H15.5455ZM15.8182 15.8255C15.9689 15.8255 16.091 15.9475 16.091 16.0982H14.4546C14.4546 16.8514 15.0651 17.4618 15.8182 17.4618V15.8255ZM16.091 16.0982C16.091 16.2488 15.9689 16.3709 15.8182 16.3709V14.7346C15.0651 14.7346 14.4546 15.345 14.4546 16.0982H16.091ZM15.8182 16.3709C15.6676 16.3709 15.5455 16.2488 15.5455 16.0982H17.1819C17.1819 15.345 16.5714 14.7346 15.8182 14.7346V16.3709ZM3.27277 20.7346H6.5455V19.0982H3.27277V20.7346ZM20.7273 19.0982H17.4546V20.7346H20.7273V19.0982ZM4.09095 23.1891V24.28H5.72732V23.1891H4.09095ZM18.2728 23.1891V24.28H19.9091V23.1891H18.2728Z" fill="white"/>
</g>
<defs>
<clipPath id="clip0_7_441">
<rect width="24" height="24" fill="white" transform="translate(0 0.280029)"/>
</clipPath>
</defs>
</svg>
