<svg width="24" height="25" viewBox="0 0 24 25" fill="none" xmlns="http://www.w3.org/2000/svg">
<path d="M1.00014 17.276C1.00014 17.276 1.00036 15.1299 1.00036 13.1792C1.00036 12.6078 2.57182 12.6916 2.57182 12.6916H5.21454H12.0002H21.4285C21.4285 12.6916 22.9999 12.6078 22.9999 13.1792C22.9999 14.6421 22.9999 17.2761 22.9999 17.2761M1.00014 17.276L22.9999 17.2761L1.00014 17.276ZM1.00014 17.276C1.00014 17.276 0.99968 19.7921 1.00043 20.2799L3.35034 20.28L5.44552 17.2763M1.00014 17.276L5.44552 17.2763L1.00014 17.276ZM22.9999 17.2761L18.5549 17.2763L22.9999 17.2761ZM22.9999 17.2761L23 20.2799L20.6501 20.28L18.5549 17.2763M12.0002 8.68776C12.0002 7.22469 5.21454 7.22469 5.21454 8.68776C5.21454 9.15871 5.21454 10.1081 5.21454 10.9643M12.0002 8.68776C12.0002 7.22469 18.7858 7.22469 18.7858 8.68776C18.7858 9.33938 18.7858 10.2048 18.7858 10.9643M12.0002 8.68776C12.0002 9.15871 12.0002 10.1081 12.0002 10.9643C12.0002 10.2048 12.0002 9.33938 12.0002 8.68776ZM5.44552 17.2763H18.5549H5.44552ZM2.57182 10.9643C2.57182 9.43214 2.57182 7.23106 2.57182 5.86397C2.57182 3.59691 21.4285 3.91312 21.4285 5.86389C21.4285 7.06262 21.4285 9.36626 21.4285 10.9643" fill="white"/>
</svg>
