<svg width="24" height="25" viewBox="0 0 24 25" fill="none" xmlns="http://www.w3.org/2000/svg">
<g clip-path="url(#clip0_7_443)">
<path d="M10.9091 21.3345H11.7818V19.5891H10.9091V21.3345ZM13.6363 3.22542H12.7636V4.97088H13.6363V3.22542ZM5.55374 2.40568L4.9054 2.98991L5.55374 3.70938L6.20207 2.98991L5.55374 2.40568ZM5.55717 8.8628L4.99559 9.53084C5.32024 9.80376 5.7941 9.80376 6.11876 9.53084L5.55717 8.8628ZM18.6446 16.5875L17.9963 17.1717L18.6446 17.8912L19.293 17.1717L18.6446 16.5875ZM18.6481 23.0446L18.0865 23.7127C18.4111 23.9855 18.885 23.9855 19.2097 23.7127L18.6481 23.0446ZM13.4403 10.272L9.00625 13.4083L10.0142 14.8334L14.4483 11.6971L13.4403 10.272ZM9.00625 13.4083C7.66268 14.3587 6.6091 15.103 5.87517 15.718C5.50605 16.0272 5.18728 16.3287 4.94278 16.6315C4.69883 16.9336 4.49317 17.2806 4.41311 17.681L6.12467 18.0233C6.12979 17.9976 6.15763 17.9054 6.30084 17.728C6.4435 17.5512 6.66555 17.333 6.99622 17.0559C7.66186 16.4981 8.64379 15.8026 10.0142 14.8334L9.00625 13.4083ZM10.9091 19.5891C9.22426 19.5891 8.18642 19.588 7.48468 19.5187C6.79742 19.4507 6.61384 19.3304 6.50858 19.2308L5.3089 20.4987C5.83459 20.9961 6.48904 21.1743 7.31314 21.2556C8.12277 21.3356 9.26963 21.3345 10.9091 21.3345V19.5891ZM4.41311 17.681C4.20696 18.7118 4.54534 19.7761 5.3089 20.4987L6.50858 19.2308C6.18134 18.9212 6.03633 18.465 6.12467 18.0233L4.41311 17.681ZM13.6363 4.97088C15.0326 4.97088 15.7768 4.97294 16.2614 5.03779C16.4858 5.06783 16.6084 5.10659 16.6884 5.14326C16.7628 5.17743 16.8378 5.22679 16.9459 5.3291L18.1456 4.06128C17.9382 3.86508 17.7077 3.69054 17.4161 3.55679C17.1301 3.42555 16.8262 3.35237 16.493 3.30776C15.8623 3.22336 14.9674 3.22542 13.6363 3.22542V4.97088ZM14.4483 11.6971C15.8328 10.7177 16.8964 9.82675 17.6458 9.05282C18.3592 8.31601 18.903 7.57061 19.0414 6.87898L17.3298 6.53669C17.2978 6.69684 17.0781 7.12997 16.3919 7.83867C15.7416 8.51023 14.7697 9.33172 13.4403 10.272L14.4483 11.6971ZM16.9459 5.3291C17.2731 5.63875 17.4182 6.09492 17.3298 6.53669L19.0414 6.87898C19.2475 5.84816 18.9091 4.7838 18.1456 4.06128L16.9459 5.3291ZM6.20207 1.82146C5.13786 0.640459 3.12507 -0.13565 1.50342 1.17959L2.6029 2.53523C3.21871 2.03578 4.18383 2.18916 4.9054 2.98991L6.20207 1.82146ZM1.50342 1.17959C0.0201859 2.38255 -0.21364 4.44953 0.980181 5.90774L2.33075 4.80205C1.76748 4.11402 1.84865 3.14694 2.6029 2.53523L1.50342 1.17959ZM10.1273 5.90774C11.3128 4.45963 11.1189 2.37458 9.59488 1.17224L8.51376 2.54257C9.26571 3.13583 9.34826 4.10392 8.77672 4.80205L10.1273 5.90774ZM9.59488 1.17224C7.96164 -0.116305 5.9767 0.632602 4.9054 1.82146L6.20207 2.98991C6.91656 2.19701 7.87107 2.03551 8.51376 2.54257L9.59488 1.17224ZM0.980181 5.90774C1.40115 6.42195 2.25566 7.19587 3.03623 7.87391C3.83687 8.56938 4.64165 9.23331 4.99559 9.53084L6.11876 8.19476C5.74818 7.88324 4.96734 7.23934 4.18087 6.55618C3.37432 5.85557 2.64023 5.18006 2.33075 4.80205L0.980181 5.90774ZM6.11876 9.53084C6.47388 9.23232 7.27598 8.5692 8.07539 7.87328C8.85448 7.19507 9.70671 6.42147 10.1273 5.90774L8.77672 4.80205C8.46685 5.18054 7.73391 5.85638 6.92934 6.55679C6.14507 7.23952 5.36498 7.88424 4.99559 8.19476L6.11876 9.53084ZM19.293 16.0032C18.2287 14.8223 16.216 14.0462 14.5943 15.3614L15.6938 16.717C16.3096 16.2176 17.2747 16.371 17.9963 17.1717L19.293 16.0032ZM14.5943 15.3614C13.1111 16.5644 12.8773 18.6313 14.0711 20.0896L15.4216 18.9838C14.8584 18.2959 14.9395 17.3288 15.6938 16.717L14.5943 15.3614ZM23.2182 20.0896C24.4037 18.6415 24.2098 16.5564 22.6858 15.354L21.6047 16.7243C22.3566 17.3177 22.4392 18.2857 21.8676 18.9838L23.2182 20.0896ZM22.6858 15.354C21.0526 14.0655 19.0677 14.8144 17.9963 16.0032L19.293 17.1717C20.0075 16.3788 20.962 16.2174 21.6047 16.7243L22.6858 15.354ZM14.0711 20.0896C14.4921 20.6038 15.3466 21.3777 16.1271 22.0557C16.9277 22.7512 17.7326 23.4151 18.0865 23.7127L19.2097 22.3765C18.8391 22.0651 18.0582 21.4211 17.2718 20.738C16.4652 20.0374 15.7311 19.3619 15.4216 18.9838L14.0711 20.0896ZM19.2097 23.7127C19.5648 23.4141 20.3669 22.7511 21.1663 22.0551C21.9454 21.3768 22.7976 20.6033 23.2182 20.0896L21.8676 18.9838C21.5578 19.3624 20.8248 20.0382 20.0202 20.7386C19.236 21.4214 18.4559 22.0661 18.0865 22.3765L19.2097 23.7127Z" fill="white"/>
</g>
<defs>
<clipPath id="clip0_7_443">
<rect width="24" height="24" fill="white" transform="translate(0 0.280029)"/>
</clipPath>
</defs>
</svg>
