<svg width="16" height="16" viewBox="0 0 16 16" fill="none" xmlns="http://www.w3.org/2000/svg">
<path d="M1.59799 4.82901V4.22901C1.43886 4.22901 1.28624 4.29223 1.17372 4.40475C1.0612 4.51727 0.997986 4.66988 0.997986 4.82901H1.59799ZM1.59799 13.413H0.997986C0.997986 13.5721 1.0612 13.7248 1.17372 13.8373C1.28624 13.9498 1.43886 14.013 1.59799 14.013V13.413ZM14.402 13.413V14.013C14.5611 14.013 14.7137 13.9498 14.8263 13.8373C14.9388 13.7248 15.002 13.5721 15.002 13.413H14.402ZM14.402 4.82901H15.002C15.002 4.66988 14.9388 4.51727 14.8263 4.40475C14.7137 4.29223 14.5611 4.22901 14.402 4.22901V4.82901ZM7.27399 2.60201V2.00201C7.16094 2.00197 7.05018 2.03385 6.95446 2.09401C6.85875 2.15416 6.78197 2.24013 6.73299 2.34201L7.27299 2.60201H7.27399ZM10.84 2.60201L11.383 2.34801C11.3347 2.2447 11.258 2.15729 11.1618 2.09601C11.0657 2.03473 10.954 2.00213 10.84 2.00201V2.60201ZM11.88 4.82901L11.336 5.08201L11.498 5.42801H11.88V4.82901ZM6.20199 4.82901V5.42901H6.57999L6.74299 5.08901L6.20199 4.82901ZM0.997986 4.82901V13.413H2.19799V4.82701H0.997986V4.82901ZM1.59799 14.013H14.402V12.813H1.59799V14.013ZM15.002 13.413V4.82901H13.802V13.413H15.002ZM7.27399 3.20301H10.84V2.00201H7.27399V3.20201V3.20301ZM14.402 4.22901H11.88V5.42801L14.402 5.42901V4.22901ZM1.59799 5.42901H3.94499V4.22901H1.59799V5.42901ZM3.94499 5.42901H6.20199V4.22901H3.94499V5.42901ZM3.91399 5.42801C3.91399 5.42801 3.98499 5.42501 4.07699 5.56801C4.18299 5.73001 4.31799 6.09201 4.31799 6.81901H5.51799C5.51799 5.96901 5.36499 5.34501 5.08299 4.91301C4.78799 4.45901 4.37299 4.25001 3.97699 4.22901L3.91399 5.42801ZM4.31799 6.81901V7.15201H5.51799V6.82001H4.31799V6.81901ZM6.74299 5.08901L7.81399 2.86201L6.73299 2.34201L5.66199 4.56801L6.74299 5.08801V5.08901ZM10.296 2.85601L11.336 5.08201L12.423 4.57501L11.383 2.34801L10.296 2.85601ZM10.821 9.06001C10.821 9.55394 10.6248 10.0276 10.2757 10.377C9.92652 10.7264 9.45291 10.9227 8.95899 10.923V12.123C9.771 12.1225 10.5496 11.7995 11.1236 11.2252C11.6976 10.6508 12.02 9.87203 12.02 9.06001H10.82H10.821ZM8.95999 10.923C8.71525 10.9231 8.47288 10.8751 8.24674 10.7815C8.02059 10.6879 7.8151 10.5507 7.642 10.3777C7.4689 10.2047 7.33158 9.99928 7.23789 9.77318C7.14421 9.54709 7.09599 9.30475 7.09599 9.06001H5.89599C5.89599 9.87237 6.21869 10.6515 6.79312 11.2259C7.36754 11.8003 8.14663 12.123 8.95899 12.123V10.923H8.95999ZM7.09599 9.06001C7.09599 8.03201 7.92999 7.19801 8.95899 7.19801V5.99801C8.1468 5.99801 7.36787 6.32058 6.79347 6.89479C6.21908 7.469 5.89625 8.24783 5.89599 9.06001H7.09599ZM8.95899 7.19801C9.98699 7.19801 10.821 8.03201 10.821 9.06001H12.02C12.0197 8.24818 11.6982 7.46965 11.1242 6.8955C10.5502 6.32135 9.77182 5.99854 8.95999 5.99801V7.19801H8.95899ZM7.94899 5.20201H8.95299V4.00201H7.94999L7.94899 5.20201ZM8.95299 5.20201H9.95799V4.00201H8.95299V5.20201Z" fill="white"/>
</svg>
